<svg xmlns="http://www.w3.org/2000/svg" fill="none" viewBox="0 0 608 135"><circle cx="11.3" cy="28" r="11.3" fill="#0277FA"/><circle cx="11.3" cy="67.7" r="11.3" fill="#0277FA"/><circle cx="11.3" cy="107.3" r="11.3" fill="#0277FA"/><rect width="68" height="22.7" x="34" y="17" fill="#0277FA" rx="11.3"/><rect width="56.7" height="9.4" x="118" y="39" fill="#fff" rx="4.7" transform="rotate(90 118 39)"/><rect width="56.7" height="9.4" x="85" y="63" fill="#fff" rx="4.7"/><rect width="45.3" height="22.7" x="34" y="56" fill="#0277FA" rx="11.3"/><rect width="62.3" height="22.7" x="34" y="96" fill="#0277FA" rx="11.3"/><path fill="#fff" d="M217 36v12h-17v51h-15V48h-17V36h49Zm31 64c-5 0-10-1-14-3l-9-9c-2-4-3-9-3-14s1-10 3-14 6-7 9-9c4-2 9-3 14-3s9 1 13 3 7 5 9 9c3 4 4 9 4 14s-1 10-4 14l-9 9c-4 2-8 3-13 3Zm0-14c3 0 5-1 7-3s3-5 3-9-1-7-3-9c-2-3-4-4-7-4s-6 1-8 4c-2 2-3 5-3 9s1 7 3 9 5 3 8 3Zm31-12c0-5 1-10 3-14s5-7 8-9a21 21 0 0 1 20-1l7 6V32h15v67h-15v-7l-7 6-9 2a21 21 0 0 1-19-13c-2-3-3-8-3-13Zm38 0c0-4-1-7-4-9-2-2-4-4-7-4s-6 2-8 4-3 5-3 9 1 7 3 9 5 3 8 3 5-1 7-3c3-2 4-5 4-9Zm49 26c-5 0-9-1-13-3l-10-9c-2-4-3-9-3-14s1-10 4-14c2-4 5-7 9-9s8-3 13-3 10 1 14 3c3 2 7 5 9 9s3 9 3 14-1 10-3 14l-10 9c-4 2-8 3-13 3Zm0-14c3 0 5-1 7-3 3-2 4-5 4-9s-1-7-3-9c-2-3-5-4-8-4s-5 1-7 4c-2 2-3 5-3 9s1 7 3 9 4 3 7 3Zm102-30c0 4-1 7-3 10s-4 6-8 8l-13 2h-9v23h-15V36h24l13 2a21 21 0 0 1 10 18Zm-25 8 7-2 2-6-2-6-7-2h-8v16h8Zm48-32v67h-15V32h15Zm61 17v50h-16v-7l-6 6-9 2c-4 0-7-1-10-3l-7-7-2-12V49h15v27c0 3 1 6 3 8 1 2 4 3 7 3s5-1 7-3 2-5 2-8V49h16Zm31 51c-4 0-8-1-11-3-4-1-7-3-9-6-1-2-3-5-3-8h15l3 4 5 1 5-1 1-3-2-3-7-2-9-3-7-4-2-8 2-8 7-6 11-2c7 0 11 2 15 5s6 7 6 12h-14l-2-4-5-2-4 2-2 2 2 4 8 2 9 3 6 4c2 2 3 5 3 8s-1 6-3 8l-7 6-11 2Z"/></svg>