<svg width="608" height="135" viewBox="0 0 608 135" fill="none" xmlns="http://www.w3.org/2000/svg">
<circle cx="11.3338" cy="28" r="11.3333" fill="#0277FA"/>
<circle cx="11.3333" cy="67.6666" r="11.3333" fill="#0277FA"/>
<circle cx="11.3333" cy="107.333" r="11.3333" fill="#0277FA"/>
<rect x="34" y="16.6666" width="68" height="22.6667" rx="11.3333" fill="#0277FA"/>
<rect x="118.055" y="39.3333" width="56.6667" height="9.44444" rx="4.72222" transform="rotate(90 118.055 39.3333)" fill="white"/>
<rect x="85" y="62.9442" width="56.6667" height="9.44444" rx="4.72222" fill="white"/>
<rect x="34" y="56.3333" width="45.3333" height="22.6667" rx="11.3333" fill="#0277FA"/>
<rect x="34" y="96" width="62.3333" height="22.6667" rx="11.3333" fill="#0277FA"/>
<path d="M217.03 35.82V48.15H200.29V99H184.9V48.15H168.16V35.82H217.03ZM247.614 99.72C242.694 99.72 238.254 98.67 234.294 96.57C230.394 94.47 227.304 91.47 225.024 87.57C222.804 83.67 221.694 79.11 221.694 73.89C221.694 68.73 222.834 64.2 225.114 60.3C227.394 56.34 230.514 53.31 234.474 51.21C238.434 49.11 242.874 48.06 247.794 48.06C252.714 48.06 257.154 49.11 261.114 51.21C265.074 53.31 268.194 56.34 270.474 60.3C272.754 64.2 273.894 68.73 273.894 73.89C273.894 79.05 272.724 83.61 270.384 87.57C268.104 91.47 264.954 94.47 260.934 96.57C256.974 98.67 252.534 99.72 247.614 99.72ZM247.614 86.4C250.554 86.4 253.044 85.32 255.084 83.16C257.184 81 258.234 77.91 258.234 73.89C258.234 69.87 257.214 66.78 255.174 64.62C253.194 62.46 250.734 61.38 247.794 61.38C244.794 61.38 242.304 62.46 240.324 64.62C238.344 66.72 237.354 69.81 237.354 73.89C237.354 77.91 238.314 81 240.234 83.16C242.214 85.32 244.674 86.4 247.614 86.4ZM278.999 73.8C278.999 68.64 279.959 64.11 281.879 60.21C283.859 56.31 286.529 53.31 289.889 51.21C293.249 49.11 296.999 48.06 301.139 48.06C304.439 48.06 307.439 48.75 310.139 50.13C312.899 51.51 315.059 53.37 316.619 55.71V32.4H332.009V99H316.619V91.8C315.179 94.2 313.109 96.12 310.409 97.56C307.769 99 304.679 99.72 301.139 99.72C296.999 99.72 293.249 98.67 289.889 96.57C286.529 94.41 283.859 91.38 281.879 87.48C279.959 83.52 278.999 78.96 278.999 73.8ZM316.619 73.89C316.619 70.05 315.539 67.02 313.379 64.8C311.279 62.58 308.699 61.47 305.639 61.47C302.579 61.47 299.969 62.58 297.809 64.8C295.709 66.96 294.659 69.96 294.659 73.8C294.659 77.64 295.709 80.7 297.809 82.98C299.969 85.2 302.579 86.31 305.639 86.31C308.699 86.31 311.279 85.2 313.379 82.98C315.539 80.76 316.619 77.73 316.619 73.89ZM366.003 99.72C361.083 99.72 356.643 98.67 352.683 96.57C348.783 94.47 345.693 91.47 343.413 87.57C341.193 83.67 340.083 79.11 340.083 73.89C340.083 68.73 341.223 64.2 343.502 60.3C345.783 56.34 348.903 53.31 352.863 51.21C356.823 49.11 361.263 48.06 366.183 48.06C371.103 48.06 375.543 49.11 379.503 51.21C383.463 53.31 386.583 56.34 388.863 60.3C391.143 64.2 392.283 68.73 392.283 73.89C392.283 79.05 391.113 83.61 388.773 87.57C386.493 91.47 383.343 94.47 379.323 96.57C375.363 98.67 370.923 99.72 366.003 99.72ZM366.003 86.4C368.943 86.4 371.433 85.32 373.473 83.16C375.573 81 376.623 77.91 376.623 73.89C376.623 69.87 375.603 66.78 373.563 64.62C371.583 62.46 369.123 61.38 366.183 61.38C363.183 61.38 360.693 62.46 358.713 64.62C356.733 66.72 355.743 69.81 355.743 73.89C355.743 77.91 356.703 81 358.623 83.16C360.603 85.32 363.063 86.4 366.003 86.4ZM467.669 56.16C467.669 59.82 466.829 63.18 465.149 66.24C463.469 69.24 460.889 71.67 457.409 73.53C453.929 75.39 449.609 76.32 444.449 76.32H434.909V99H419.519V35.82H444.449C449.489 35.82 453.749 36.69 457.229 38.43C460.709 40.17 463.319 42.57 465.059 45.63C466.799 48.69 467.669 52.2 467.669 56.16ZM443.279 64.08C446.219 64.08 448.409 63.39 449.849 62.01C451.289 60.63 452.009 58.68 452.009 56.16C452.009 53.64 451.289 51.69 449.849 50.31C448.409 48.93 446.219 48.24 443.279 48.24H434.909V64.08H443.279ZM491.072 32.4V99H475.682V32.4H491.072ZM551.815 48.78V99H536.425V92.16C534.865 94.38 532.735 96.18 530.035 97.56C527.395 98.88 524.455 99.54 521.215 99.54C517.375 99.54 513.985 98.7 511.045 97.02C508.105 95.28 505.825 92.79 504.205 89.55C502.585 86.31 501.775 82.5 501.775 78.12V48.78H517.075V76.05C517.075 79.41 517.945 82.02 519.685 83.88C521.425 85.74 523.765 86.67 526.705 86.67C529.705 86.67 532.075 85.74 533.815 83.88C535.555 82.02 536.425 79.41 536.425 76.05V48.78H551.815ZM583.299 99.72C578.919 99.72 575.019 98.97 571.599 97.47C568.179 95.97 565.479 93.93 563.499 91.35C561.519 88.71 560.409 85.77 560.169 82.53H575.379C575.559 84.27 576.369 85.68 577.809 86.76C579.249 87.84 581.019 88.38 583.119 88.38C585.039 88.38 586.509 88.02 587.529 87.3C588.609 86.52 589.149 85.53 589.149 84.33C589.149 82.89 588.399 81.84 586.899 81.18C585.399 80.46 582.969 79.68 579.609 78.84C576.009 78 573.009 77.13 570.609 76.23C568.209 75.27 566.139 73.8 564.399 71.82C562.659 69.78 561.789 67.05 561.789 63.63C561.789 60.75 562.569 58.14 564.129 55.8C565.749 53.4 568.089 51.51 571.149 50.13C574.269 48.75 577.959 48.06 582.219 48.06C588.519 48.06 593.469 49.62 597.069 52.74C600.729 55.86 602.829 60 603.369 65.16H589.149C588.909 63.42 588.129 62.04 586.809 61.02C585.549 60 583.869 59.49 581.769 59.49C579.969 59.49 578.589 59.85 577.629 60.57C576.669 61.23 576.189 62.16 576.189 63.36C576.189 64.8 576.939 65.88 578.439 66.6C579.999 67.32 582.399 68.04 585.639 68.76C589.359 69.72 592.389 70.68 594.729 71.64C597.069 72.54 599.109 74.04 600.849 76.14C602.649 78.18 603.579 80.94 603.639 84.42C603.639 87.36 602.799 90 601.119 92.34C599.499 94.62 597.129 96.42 594.009 97.74C590.949 99.06 587.379 99.72 583.299 99.72Z" fill="white"/>
</svg>
