<svg xmlns="http://www.w3.org/2000/svg" fill="none" viewBox="0 0 1062 563"><g clip-path="url(#a)"><path fill="#0277FA" d="M1062 100v118l-2-3L916 2l-1-2h80l1 2 64 95 2 3Z"/><path fill="#3F3D56" d="M560 0A558 558 0 0 0 0 560v1h1062V0H560Zm500 559H2A556 556 0 0 1 560 2h500v557Z"/><path fill="#0277FA" d="M496 481c13 40 8 79 8 79s-26-28-40-69c-13-40-8-78-8-78s26 27 40 68Z"/><path fill="#0277FA" d="M513 481c-13 40-9 79-9 79s27-28 40-69c14-40 9-78 9-78s-26 27-40 68Z"/><path fill="#3F3D56" d="M519 481c0 43-15 78-15 78s-18-34-18-77c-1-43 14-78 14-78s18 35 19 77Z"/><path fill="#3F3D56" d="M504 562c21 0 38-1 38-2 0-2-17-3-38-3s-38 1-38 3c0 1 17 2 38 2Z"/><path fill="#F2F2F2" d="M140 560a22 22 0 1 0 0-43 22 22 0 0 0 0 43Z"/><path fill="#3F3D56" d="M144 504a29 29 0 1 0 0 58 29 29 0 0 0 0-58Zm7 55a27 27 0 0 1-8 1l-6-1a27 27 0 0 1-18-15 27 27 0 1 1 32 15Z"/><path fill="#F2F2F2" d="M390 392H228v28h162v-28Zm505-269H733v28h162v-28Zm0 63H733v28h162v-28Zm0 61H733v28h162v-28Zm0 61H733v28h162v-28Zm0 63H733v28h162v-28Zm0 63H733v28h162v-28Z"/><path fill="#3F3D56" d="M227 381v40h216v-40H227Zm214 38H229v-36h212v36Zm146-253a10 10 0 1 0 0-20 10 10 0 0 0 0 20Zm0 62a10 10 0 1 0 0-20 10 10 0 0 0 0 20Zm0 62a10 10 0 1 0 0-20 10 10 0 0 0 0 20Zm0 62a10 10 0 1 0 0-20 10 10 0 0 0 0 20Zm0 62a10 10 0 1 0 0-20 10 10 0 0 0 0 20Zm0 62a10 10 0 1 0 0-20 10 10 0 0 0 0 20Zm364-321H677v2h274v-2Zm0 62H677v2h274v-2Zm0 62H677v2h274v-2Zm0 62H677v2h274v-2Zm0 62H677v2h274v-2Zm0 62H677v2h274v-2Zm49 58-26-21 22-27 26 22-22 26Zm-23-22 23 19 19-23-23-19-19 23Z"/><path fill="#0277FA" d="m620 53-25-20-21 25 25 20 21-25Z"/><path fill="#3F3D56" d="M468 218a132 132 0 0 1-141 133 133 133 0 1 1 141-133Z"/><path fill="#A0616A" d="M330 212a36 36 0 1 0 0-73 36 36 0 0 0 0 73Z"/><path fill="#A0616A" d="M305 193s12 27-4 38c-17 10 27 54 27 54l48-51s-26-17-21-44l-50 3Zm112 130a126 126 0 0 1-13 9l-1-2 4-2 10-5Z"/><path fill="#0277FA" d="m404 332 2-1v-1l1-2 19-75-58-26-34 20-31-19s-18 1-22 6a175 175 0 0 1-32 16l4 73a127 127 0 0 0 8 6 133 133 0 0 0 133 8l10-5Z"/><path fill="#0277FA" d="M261 249v80a92 92 0 0 1-13-10 133 133 0 0 1-26-31l3-11c8-24 24-28 24-28h12Zm143 83a102 102 0 0 0 13-9 133 133 0 0 0 25-26l-16-44-21-1-11 85 10-5Z"/><path fill="#2F2E41" d="m308 134-6 4-7 7-2 2c-2 3-4 5-4 8v3c1 5-2 9 0 13l3 3 1 5c2 0 4-2 5-4l1-7c0-3 1-5 3-6 5-2 10 3 15 2 3-1 5-5 9-6l7 2c2 1 5 2 7 0l2-5c2-1 4 1 5 2 2 2 3 4 5 4 3 0 5-4 7-3 3 1 2 5 4 8 1 2 4 2 7 1a3 3 0 0 0 2-3l-1-14v-3l-4-3-4-8-5-1-4-6c-1-2-4-3-7-3h-10c-6-1-12-2-18-1-5 0-8 5-11 9Z"/><path fill="#3F3D56" d="M1022 127a4 4 0 1 0 0-9 4 4 0 0 0 0 9Zm-29-51a4 4 0 1 0 0-9 4 4 0 0 0 0 9Zm-12-55a4 4 0 1 0 0-9 4 4 0 0 0 0 9Z"/></g><defs><clipPath id="a"><path fill="#fff" d="M0 0h1062v562H0z"/></clipPath></defs></svg>