<svg xmlns="http://www.w3.org/2000/svg" fill="none" viewBox="0 0 78 13"><path fill="#fff" d="M9.2.8V3h-3v9H3.5V3h-3V.8h8.7ZM14.7 12a5 5 0 0 1-2.4-.5c-.7-.4-1.3-1-1.7-1.6-.4-.7-.6-1.5-.6-2.5 0-.9.2-1.7.7-2.4.4-.7 1-1.2 1.6-1.6a5 5 0 0 1 2.4-.6 5 5 0 0 1 2.4.6c.7.4 1.2 1 1.6 1.6.4.7.6 1.5.6 2.4 0 1-.2 1.8-.6 2.5-.4.7-1 1.2-1.7 1.6a5 5 0 0 1-2.3.5Zm0-2.3c.5 0 1-.2 1.3-.6.4-.4.5-1 .5-1.7S16.4 6.3 16 6c-.4-.4-.8-.6-1.3-.6s-1 .2-1.3.6c-.4.4-.6 1-.6 1.6 0 .8.2 1.3.5 1.7.4.4.8.6 1.4.6Zm5.5-2.3c0-.9.2-1.7.5-2.4a3.7 3.7 0 0 1 5-1.8c.6.3 1 .6 1.2 1v-4h2.8V12h-2.8v-1.3c-.2.4-.6.8-1 1-.6.3-1.1.4-1.7.4a3.7 3.7 0 0 1-3.5-2.1 7 7 0 0 1-.5-2.5Zm6.7 0c0-.6-.2-1.2-.6-1.6-.3-.4-.8-.6-1.3-.6-.6 0-1 .2-1.4.6-.4.4-.6 1-.6 1.6 0 .7.2 1.2.6 1.7.4.3.8.5 1.4.5.5 0 1-.2 1.3-.5.4-.4.6-1 .6-1.7Zm8.8 4.6a5 5 0 0 1-2.4-.5c-.7-.4-1.2-1-1.6-1.6-.4-.7-.6-1.5-.6-2.5 0-.9.2-1.7.6-2.4.4-.7 1-1.2 1.7-1.6a5 5 0 0 1 2.3-.6 5 5 0 0 1 2.4.6c.7.4 1.3 1 1.7 1.6.4.7.6 1.5.6 2.4a4 4 0 0 1-.7 2.5c-.4.7-1 1.2-1.6 1.6a5 5 0 0 1-2.4.5Zm0-2.3c.5 0 1-.2 1.3-.6.4-.4.6-1 .6-1.7S37.4 6.3 37 6c-.3-.4-.7-.6-1.3-.6-.5 0-1 .2-1.3.6-.3.4-.5 1-.5 1.6 0 .8.1 1.3.5 1.7.3.4.8.6 1.3.6Zm18-5.4c0 .6 0 1.2-.4 1.8a3 3 0 0 1-1.4 1.3c-.6.3-1.3.5-2.3.5H48v4h-2.7V.8h4.4a5 5 0 0 1 2.3.4c.6.3 1.1.8 1.4 1.3.3.6.5 1.2.5 1.9Zm-4.3 1.4c.6 0 1-.1 1.2-.4.3-.2.4-.6.4-1 0-.5-.1-.8-.4-1-.3-.3-.6-.4-1.2-.4H48v2.8h1.5ZM58 .2V12h-2.7V.2H58ZM68.7 3v9H66v-1.2a3 3 0 0 1-1.1 1c-.5.2-1 .3-1.6.3-.7 0-1.3-.2-1.8-.5s-1-.7-1.2-1.3c-.3-.6-.5-1.2-.5-2V3h2.8v4.8c0 .6.1 1 .4 1.4.3.3.7.5 1.3.5.5 0 1-.2 1.2-.5.3-.3.5-.8.5-1.4V3.1h2.7Zm5.6 9c-.7 0-1.4-.1-2-.4-.7-.2-1.1-.6-1.5-1a3 3 0 0 1-.6-1.6H73c0 .3.2.5.5.7.2.2.5.3.9.3.3 0 .6 0 .8-.2.2-.1.3-.3.3-.5 0-.3-.2-.5-.4-.6l-1.3-.4L72 8c-.5-.2-.8-.5-1.1-.8-.3-.4-.5-.9-.5-1.5 0-.5.1-1 .4-1.4.3-.4.7-.7 1.3-1 .5-.2 1.2-.4 2-.4 1 0 2 .3 2.6.9.6.5 1 1.3 1.1 2.2h-2.5a1 1 0 0 0-.4-.8L74 5c-.3 0-.5 0-.7.2l-.2.5c0 .2.1.4.4.5.2.2.7.3 1.2.4l1.7.5 1 .8c.4.4.5.9.5 1.5 0 .5-.1 1-.4 1.4-.3.4-.7.7-1.3 1a5 5 0 0 1-1.9.3Z"/></svg>