<svg width="78" height="13" viewBox="0 0 78 13" fill="none" xmlns="http://www.w3.org/2000/svg">
<path d="M9.21488 0.768V2.96H6.23888V12H3.50288V2.96H0.526883V0.768H9.21488ZM14.652 12.128C13.7773 12.128 12.988 11.9413 12.284 11.568C11.5907 11.1947 11.0413 10.6613 10.636 9.968C10.2413 9.27467 10.044 8.464 10.044 7.536C10.044 6.61867 10.2467 5.81333 10.652 5.12C11.0573 4.416 11.612 3.87733 12.316 3.504C13.02 3.13067 13.8093 2.944 14.684 2.944C15.5587 2.944 16.348 3.13067 17.052 3.504C17.756 3.87733 18.3107 4.416 18.716 5.12C19.1213 5.81333 19.324 6.61867 19.324 7.536C19.324 8.45333 19.116 9.264 18.7 9.968C18.2947 10.6613 17.7347 11.1947 17.02 11.568C16.316 11.9413 15.5267 12.128 14.652 12.128ZM14.652 9.76C15.1747 9.76 15.6173 9.568 15.98 9.184C16.3533 8.8 16.54 8.25067 16.54 7.536C16.54 6.82133 16.3587 6.272 15.996 5.888C15.644 5.504 15.2067 5.312 14.684 5.312C14.1507 5.312 13.708 5.504 13.356 5.888C13.004 6.26133 12.828 6.81067 12.828 7.536C12.828 8.25067 12.9987 8.8 13.34 9.184C13.692 9.568 14.1293 9.76 14.652 9.76ZM20.2315 7.52C20.2315 6.60267 20.4022 5.79733 20.7435 5.104C21.0955 4.41067 21.5702 3.87733 22.1675 3.504C22.7648 3.13067 23.4315 2.944 24.1675 2.944C24.7542 2.944 25.2875 3.06667 25.7675 3.312C26.2582 3.55733 26.6422 3.888 26.9195 4.304V0.16H29.6555V12H26.9195V10.72C26.6635 11.1467 26.2955 11.488 25.8155 11.744C25.3462 12 24.7968 12.128 24.1675 12.128C23.4315 12.128 22.7648 11.9413 22.1675 11.568C21.5702 11.184 21.0955 10.6453 20.7435 9.952C20.4022 9.248 20.2315 8.43733 20.2315 7.52ZM26.9195 7.536C26.9195 6.85333 26.7275 6.31467 26.3435 5.92C25.9702 5.52533 25.5115 5.328 24.9675 5.328C24.4235 5.328 23.9595 5.52533 23.5755 5.92C23.2022 6.304 23.0155 6.83733 23.0155 7.52C23.0155 8.20267 23.2022 8.74667 23.5755 9.152C23.9595 9.54667 24.4235 9.744 24.9675 9.744C25.5115 9.744 25.9702 9.54667 26.3435 9.152C26.7275 8.75733 26.9195 8.21867 26.9195 7.536ZM35.6989 12.128C34.8242 12.128 34.0349 11.9413 33.3309 11.568C32.6376 11.1947 32.0882 10.6613 31.6829 9.968C31.2882 9.27467 31.0909 8.464 31.0909 7.536C31.0909 6.61867 31.2935 5.81333 31.6989 5.12C32.1042 4.416 32.6589 3.87733 33.3629 3.504C34.0669 3.13067 34.8562 2.944 35.7309 2.944C36.6056 2.944 37.3949 3.13067 38.0989 3.504C38.8029 3.87733 39.3576 4.416 39.7629 5.12C40.1682 5.81333 40.3709 6.61867 40.3709 7.536C40.3709 8.45333 40.1629 9.264 39.7469 9.968C39.3416 10.6613 38.7816 11.1947 38.0669 11.568C37.3629 11.9413 36.5736 12.128 35.6989 12.128ZM35.6989 9.76C36.2216 9.76 36.6642 9.568 37.0269 9.184C37.4002 8.8 37.5869 8.25067 37.5869 7.536C37.5869 6.82133 37.4056 6.272 37.0429 5.888C36.6909 5.504 36.2536 5.312 35.7309 5.312C35.1976 5.312 34.7549 5.504 34.4029 5.888C34.0509 6.26133 33.8749 6.81067 33.8749 7.536C33.8749 8.25067 34.0456 8.8 34.3869 9.184C34.7389 9.568 35.1762 9.76 35.6989 9.76ZM53.773 4.384C53.773 5.03467 53.6237 5.632 53.325 6.176C53.0263 6.70933 52.5677 7.14133 51.949 7.472C51.3303 7.80267 50.5623 7.968 49.645 7.968H47.949V12H45.213V0.768H49.645C50.541 0.768 51.2983 0.922666 51.917 1.232C52.5357 1.54133 52.9997 1.968 53.309 2.512C53.6183 3.056 53.773 3.68 53.773 4.384ZM49.437 5.792C49.9597 5.792 50.349 5.66933 50.605 5.424C50.861 5.17867 50.989 4.832 50.989 4.384C50.989 3.936 50.861 3.58933 50.605 3.344C50.349 3.09867 49.9597 2.976 49.437 2.976H47.949V5.792H49.437ZM57.9334 0.16V12H55.1974V0.16H57.9334ZM68.7321 3.072V12H65.9961V10.784C65.7188 11.1787 65.3401 11.4987 64.8601 11.744C64.3908 11.9787 63.8681 12.096 63.2921 12.096C62.6095 12.096 62.0068 11.9467 61.4841 11.648C60.9615 11.3387 60.5561 10.896 60.2681 10.32C59.9801 9.744 59.8361 9.06667 59.8361 8.288V3.072H62.5561V7.92C62.5561 8.51733 62.7108 8.98133 63.0201 9.312C63.3295 9.64267 63.7455 9.808 64.2681 9.808C64.8015 9.808 65.2228 9.64267 65.5321 9.312C65.8415 8.98133 65.9961 8.51733 65.9961 7.92V3.072H68.7321ZM74.3294 12.128C73.5507 12.128 72.8574 11.9947 72.2494 11.728C71.6414 11.4613 71.1614 11.0987 70.8094 10.64C70.4574 10.1707 70.26 9.648 70.2174 9.072H72.9214C72.9534 9.38133 73.0974 9.632 73.3534 9.824C73.6094 10.016 73.9241 10.112 74.2974 10.112C74.6387 10.112 74.9001 10.048 75.0814 9.92C75.2734 9.78133 75.3694 9.60533 75.3694 9.392C75.3694 9.136 75.2361 8.94933 74.9694 8.832C74.7027 8.704 74.2707 8.56533 73.6734 8.416C73.0334 8.26667 72.5001 8.112 72.0734 7.952C71.6467 7.78133 71.2787 7.52 70.9694 7.168C70.66 6.80533 70.5054 6.32 70.5054 5.712C70.5054 5.2 70.6441 4.736 70.9214 4.32C71.2094 3.89333 71.6254 3.55733 72.1694 3.312C72.7241 3.06667 73.3801 2.944 74.1374 2.944C75.2574 2.944 76.1374 3.22133 76.7774 3.776C77.4281 4.33067 77.8014 5.06667 77.8974 5.984H75.3694C75.3267 5.67467 75.1881 5.42933 74.9534 5.248C74.7294 5.06667 74.4307 4.976 74.0574 4.976C73.7374 4.976 73.4921 5.04 73.3214 5.168C73.1507 5.28533 73.0654 5.45067 73.0654 5.664C73.0654 5.92 73.1987 6.112 73.4654 6.24C73.7427 6.368 74.1694 6.496 74.7454 6.624C75.4067 6.79467 75.9454 6.96533 76.3614 7.136C76.7774 7.296 77.1401 7.56267 77.4494 7.936C77.7694 8.29867 77.9347 8.78933 77.9454 9.408C77.9454 9.93067 77.7961 10.4 77.4974 10.816C77.2094 11.2213 76.7881 11.5413 76.2334 11.776C75.6894 12.0107 75.0547 12.128 74.3294 12.128Z" fill="white"/>
</svg>
